<svg width="1911.8000000000002" height="1300.2" xmlns="http://www.w3.org/2000/svg" xmlns:xlink="http://www.w3.org/1999/xlink"><line x1="149.0" y1="7.5" x2="116.75" y2="32.0" style="stroke:black; stroke-width:1px;" />
<line x1="116.75" y1="39.5" x2="61.5" y2="64.0" style="stroke:black; stroke-width:1px;" />
<line x1="61.5" y1="71.5" x2="61.5" y2="96.0" style="stroke:black; stroke-width:1px;" />
<line x1="116.75" y1="39.5" x2="172.0" y2="64.0" style="stroke:black; stroke-width:1px;" />
<line x1="172.0" y1="71.5" x2="127.75" y2="96.0" style="stroke:black; stroke-width:1px;" />
<line x1="172.0" y1="71.5" x2="165.75" y2="96.0" style="stroke:black; stroke-width:1px;" />
<line x1="172.0" y1="71.5" x2="216.25" y2="96.0" style="stroke:black; stroke-width:1px;" />
<line x1="216.25" y1="103.5" x2="150.75" y2="128.0" style="stroke:black; stroke-width:1px;" />
<line x1="216.25" y1="103.5" x2="216.25" y2="128.0" style="stroke:black; stroke-width:1px;" />
<line x1="216.25" y1="135.5" x2="120.5" y2="160.0" style="stroke:black; stroke-width:1px;" />
<line x1="120.5" y1="167.5" x2="120.5" y2="192.0" style="stroke:black; stroke-width:1px;" />
<line x1="120.5" y1="199.5" x2="120.5" y2="224.0" style="stroke:black; stroke-width:1px;" />
<line x1="216.25" y1="135.5" x2="312.0" y2="160.0" style="stroke:black; stroke-width:1px;" />
<line x1="312.0" y1="167.5" x2="312.0" y2="192.0" style="stroke:black; stroke-width:1px;" />
<line x1="312.0" y1="199.5" x2="155.5" y2="224.0" style="stroke:black; stroke-width:1px;" />
<line x1="312.0" y1="199.5" x2="197.0" y2="224.0" style="stroke:black; stroke-width:1px;" />
<line x1="312.0" y1="199.5" x2="271.0" y2="224.0" style="stroke:black; stroke-width:1px;" />
<line x1="271.0" y1="231.5" x2="205.0" y2="256.0" style="stroke:black; stroke-width:1px;" />
<line x1="271.0" y1="231.5" x2="271.0" y2="256.0" style="stroke:black; stroke-width:1px;" />
<line x1="271.0" y1="263.5" x2="184.0" y2="288.0" style="stroke:black; stroke-width:1px;" />
<line x1="271.0" y1="263.5" x2="246.5" y2="288.0" style="stroke:black; stroke-width:1px;" />
<line x1="246.5" y1="295.5" x2="246.5" y2="320.0" style="stroke:black; stroke-width:1px;" />
<line x1="246.5" y1="327.5" x2="246.5" y2="352.0" style="stroke:black; stroke-width:1px;" />
<line x1="271.0" y1="263.5" x2="358.0" y2="288.0" style="stroke:black; stroke-width:1px;" />
<line x1="358.0" y1="295.5" x2="358.0" y2="320.0" style="stroke:black; stroke-width:1px;" />
<line x1="358.0" y1="327.5" x2="358.0" y2="352.0" style="stroke:black; stroke-width:1px;" />
<line x1="271.0" y1="231.5" x2="337.0" y2="256.0" style="stroke:black; stroke-width:1px;" />
<line x1="312.0" y1="199.5" x2="468.5" y2="224.0" style="stroke:black; stroke-width:1px;" />
<line x1="468.5" y1="231.5" x2="468.5" y2="256.0" style="stroke:black; stroke-width:1px;" />
<line x1="468.5" y1="263.5" x2="468.5" y2="288.0" style="stroke:black; stroke-width:1px;" />
<line x1="468.5" y1="295.5" x2="419.0" y2="320.0" style="stroke:black; stroke-width:1px;" />
<line x1="468.5" y1="295.5" x2="468.5" y2="320.0" style="stroke:black; stroke-width:1px;" />
<line x1="468.5" y1="327.5" x2="468.5" y2="352.0" style="stroke:black; stroke-width:1px;" />
<line x1="468.5" y1="359.5" x2="437.0" y2="384.0" style="stroke:black; stroke-width:1px;" />
<line x1="437.0" y1="391.5" x2="437.0" y2="416.0" style="stroke:black; stroke-width:1px;" />
<line x1="437.0" y1="423.5" x2="368.5" y2="448.0" style="stroke:black; stroke-width:1px;" />
<line x1="368.5" y1="455.5" x2="335.25" y2="480.0" style="stroke:black; stroke-width:1px;" />
<line x1="335.25" y1="487.5" x2="305.5" y2="512.0" style="stroke:black; stroke-width:1px;" />
<line x1="305.5" y1="519.5" x2="305.5" y2="544.0" style="stroke:black; stroke-width:1px;" />
<line x1="305.5" y1="551.5" x2="305.5" y2="576.0" style="stroke:black; stroke-width:1px;" />
<line x1="335.25" y1="487.5" x2="345.0" y2="512.0" style="stroke:black; stroke-width:1px;" />
<line x1="335.25" y1="487.5" x2="365.0" y2="512.0" style="stroke:black; stroke-width:1px;" />
<line x1="368.5" y1="455.5" x2="374.75" y2="480.0" style="stroke:black; stroke-width:1px;" />
<line x1="368.5" y1="455.5" x2="401.75" y2="480.0" style="stroke:black; stroke-width:1px;" />
<line x1="437.0" y1="423.5" x2="408.5" y2="448.0" style="stroke:black; stroke-width:1px;" />
<line x1="437.0" y1="423.5" x2="457.0" y2="448.0" style="stroke:black; stroke-width:1px;" />
<line x1="457.0" y1="455.5" x2="457.0" y2="480.0" style="stroke:black; stroke-width:1px;" />
<line x1="457.0" y1="487.5" x2="457.0" y2="512.0" style="stroke:black; stroke-width:1px;" />
<line x1="457.0" y1="519.5" x2="457.0" y2="544.0" style="stroke:black; stroke-width:1px;" />
<line x1="457.0" y1="551.5" x2="457.0" y2="576.0" style="stroke:black; stroke-width:1px;" />
<line x1="437.0" y1="423.5" x2="505.5" y2="448.0" style="stroke:black; stroke-width:1px;" />
<line x1="468.5" y1="359.5" x2="500.0" y2="384.0" style="stroke:black; stroke-width:1px;" />
<line x1="468.5" y1="295.5" x2="518.0" y2="320.0" style="stroke:black; stroke-width:1px;" />
<line x1="216.25" y1="103.5" x2="281.75" y2="128.0" style="stroke:black; stroke-width:1px;" />
<line x1="149.0" y1="7.5" x2="181.25" y2="32.0" style="stroke:black; stroke-width:1px;" />
<rect x="285.5" y="544.0" width="40.0" height="15.0" style="fill:orange; stroke:rgb(0,0,0);" rx="1"/>
<text x="287" y="553" style="font-family:sans-serif;font-size:10px;">
primary
</text>
<rect x="501.5" y="448.0" width="8.0" height="15.0" style="fill:orange; stroke:rgb(0,0,0);" rx="1"/>
<text x="503" y="457" style="font-family:sans-serif;font-size:10px;">
)
</text>
<rect x="45.5" y="96.0" width="32.0" height="15.0" style="fill:orange; stroke:rgb(0,0,0);" rx="1"/>
<text x="47" y="105" style="font-family:sans-serif;font-size:10px;">
public
</text>
<rect x="454.0" y="288.0" width="29.0" height="15.0" style="fill:orange; stroke:rgb(0,0,0);" rx="1"/>
<text x="456" y="297" style="font-family:sans-serif;font-size:10px;">
block
</text>
<rect x="265.5" y="192.0" width="93.0" height="15.0" style="fill:orange; stroke:rgb(0,0,0);" rx="1"/>
<text x="267" y="201" style="font-family:sans-serif;font-size:10px;">
methodDeclaration
</text>
<rect x="415.0" y="320.0" width="8.0" height="15.0" style="fill:orange; stroke:rgb(0,0,0);" rx="1"/>
<text x="417" y="329" style="font-family:sans-serif;font-size:10px;">
{
</text>
<rect x="226.5" y="224.0" width="89.0" height="15.0" style="fill:orange; stroke:rgb(0,0,0);" rx="1"/>
<text x="228" y="233" style="font-family:sans-serif;font-size:10px;">
formalParameters
</text>
<rect x="141.0" y="288.0" width="86.0" height="15.0" style="fill:orange; stroke:rgb(0,0,0);" rx="1"/>
<text x="143" y="297" style="font-family:sans-serif;font-size:10px;">
variableModifiers
</text>
<rect x="443.0" y="352.0" width="51.0" height="15.0" style="fill:orange; stroke:rgb(0,0,0);" rx="1"/>
<text x="445" y="361" style="font-family:sans-serif;font-size:10px;">
statement
</text>
<rect x="442.5" y="544.0" width="29.0" height="15.0" style="fill:orange; stroke:rgb(0,0,0);" rx="1"/>
<text x="444" y="553" style="font-family:sans-serif;font-size:10px;">
literal
</text>
<rect x="149.75" y="96.0" width="32.0" height="15.0" style="fill:orange; stroke:rgb(0,0,0);" rx="1"/>
<text x="151" y="105" style="font-family:sans-serif;font-size:10px;">
Prova
</text>
<rect x="216.0" y="256.0" width="110.0" height="15.0" style="fill:orange; stroke:rgb(0,0,0);" rx="1"/>
<text x="218" y="265" style="font-family:sans-serif;font-size:10px;">
formalParameterDecls
</text>
<rect x="291.0" y="160.0" width="42.0" height="15.0" style="fill:orange; stroke:rgb(0,0,0);" rx="1"/>
<text x="293" y="169" style="font-family:sans-serif;font-size:10px;">
member
</text>
<rect x="411.0" y="224.0" width="115.0" height="15.0" style="fill:orange; stroke:rgb(0,0,0);" rx="1"/>
<text x="413" y="233" style="font-family:sans-serif;font-size:10px;">
methodDeclarationRest
</text>
<rect x="341.5" y="512.0" width="7.0" height="15.0" style="fill:orange; stroke:rgb(0,0,0);" rx="1"/>
<text x="343" y="521" style="font-family:sans-serif;font-size:10px;">
.
</text>
<rect x="333.0" y="256.0" width="8.0" height="15.0" style="fill:orange; stroke:rgb(0,0,0);" rx="1"/>
<text x="335" y="265" style="font-family:sans-serif;font-size:10px;">
)
</text>
<rect x="385.25" y="480.0" width="33.0" height="15.0" style="fill:orange; stroke:rgb(0,0,0);" rx="1"/>
<text x="387" y="489" style="font-family:sans-serif;font-size:10px;">
println
</text>
<rect x="143.5" y="224.0" width="24.0" height="15.0" style="fill:orange; stroke:rgb(0,0,0);" rx="1"/>
<text x="145" y="233" style="font-family:sans-serif;font-size:10px;">
void
</text>
<rect x="451.0" y="576.0" width="12.0" height="15.0" style="fill:orange; stroke:rgb(0,0,0);" rx="1"/>
<text x="453" y="585" style="font-family:sans-serif;font-size:10px;">
""
</text>
<rect x="436.5" y="256.0" width="64.0" height="15.0" style="fill:orange; stroke:rgb(0,0,0);" rx="1"/>
<text x="438" y="265" style="font-family:sans-serif;font-size:10px;">
methodBody
</text>
<rect x="112.75" y="96.0" width="30.0" height="15.0" style="fill:orange; stroke:rgb(0,0,0);" rx="1"/>
<text x="114" y="105" style="font-family:sans-serif;font-size:10px;">
class
</text>
<rect x="355.5" y="512.0" width="19.0" height="15.0" style="fill:orange; stroke:rgb(0,0,0);" rx="1"/>
<text x="357" y="521" style="font-family:sans-serif;font-size:10px;">
out
</text>
<rect x="277.75" y="128.0" width="8.0" height="15.0" style="fill:orange; stroke:rgb(0,0,0);" rx="1"/>
<text x="279" y="137" style="font-family:sans-serif;font-size:10px;">
}
</text>
<rect x="99.5" y="192.0" width="42.0" height="15.0" style="fill:orange; stroke:rgb(0,0,0);" rx="1"/>
<text x="101" y="201" style="font-family:sans-serif;font-size:10px;">
modifier
</text>
<rect x="230.5" y="352.0" width="32.0" height="15.0" style="fill:orange; stroke:rgb(0,0,0);" rx="1"/>
<text x="232" y="361" style="font-family:sans-serif;font-size:10px;">
String
</text>
<rect x="384.5" y="384.0" width="105.0" height="15.0" style="fill:orange; stroke:rgb(0,0,0);" rx="1"/>
<text x="386" y="393" style="font-family:sans-serif;font-size:10px;">
statementExpression
</text>
<rect x="306.25" y="480.0" width="58.0" height="15.0" style="fill:orange; stroke:rgb(0,0,0);" rx="1"/>
<text x="308" y="489" style="font-family:sans-serif;font-size:10px;">
expression
</text>
<rect x="285.5" y="576.0" width="40.0" height="15.0" style="fill:orange; stroke:rgb(0,0,0);" rx="1"/>
<text x="287" y="585" style="font-family:sans-serif;font-size:10px;">
System
</text>
<rect x="161.75" y="128.0" width="109.0" height="15.0" style="fill:orange; stroke:rgb(0,0,0);" rx="1"/>
<text x="163" y="137" style="font-family:sans-serif;font-size:10px;">
classBodyDeclaration
</text>
<rect x="146.75" y="128.0" width="8.0" height="15.0" style="fill:orange; stroke:rgb(0,0,0);" rx="1"/>
<text x="148" y="137" style="font-family:sans-serif;font-size:10px;">
{
</text>
<rect x="0.0" y="64.0" width="123.0" height="15.0" style="fill:orange; stroke:rgb(0,0,0);" rx="1"/>
<text x="2" y="73" style="font-family:sans-serif;font-size:10px;">
classOrInterfaceModifier
</text>
<rect x="130.0" y="64.0" width="84.0" height="15.0" style="fill:orange; stroke:rgb(0,0,0);" rx="1"/>
<text x="132" y="73" style="font-family:sans-serif;font-size:10px;">
classDeclaration
</text>
<rect x="348.0" y="352.0" width="20.0" height="15.0" style="fill:orange; stroke:rgb(0,0,0);" rx="1"/>
<text x="350" y="361" style="font-family:sans-serif;font-size:10px;">
arg
</text>
<rect x="163.25" y="32.0" width="36.0" height="15.0" style="fill:orange; stroke:rgb(0,0,0);" rx="1"/>
<text x="165" y="41" style="font-family:sans-serif;font-size:10px;">
&lt;EOF&gt;
</text>
<rect x="111.5" y="0.0" width="75.0" height="15.0" style="fill:orange; stroke:rgb(0,0,0);" rx="1"/>
<text x="113" y="9" style="font-family:sans-serif;font-size:10px;">
compilationUnit
</text>
<rect x="428.0" y="480.0" width="58.0" height="15.0" style="fill:orange; stroke:rgb(0,0,0);" rx="1"/>
<text x="430" y="489" style="font-family:sans-serif;font-size:10px;">
expression
</text>
<rect x="174.5" y="224.0" width="45.0" height="15.0" style="fill:orange; stroke:rgb(0,0,0);" rx="1"/>
<text x="176" y="233" style="font-family:sans-serif;font-size:10px;">
metodo1
</text>
<rect x="104.5" y="224.0" width="32.0" height="15.0" style="fill:orange; stroke:rgb(0,0,0);" rx="1"/>
<text x="106" y="233" style="font-family:sans-serif;font-size:10px;">
public
</text>
<rect x="201.0" y="256.0" width="8.0" height="15.0" style="fill:orange; stroke:rgb(0,0,0);" rx="1"/>
<text x="203" y="265" style="font-family:sans-serif;font-size:10px;">
(
</text>
<rect x="96.5" y="160.0" width="48.0" height="15.0" style="fill:orange; stroke:rgb(0,0,0);" rx="1"/>
<text x="98" y="169" style="font-family:sans-serif;font-size:10px;">
modifiers
</text>
<rect x="339.5" y="448.0" width="58.0" height="15.0" style="fill:orange; stroke:rgb(0,0,0);" rx="1"/>
<text x="341" y="457" style="font-family:sans-serif;font-size:10px;">
expression
</text>
<rect x="404.5" y="448.0" width="8.0" height="15.0" style="fill:orange; stroke:rgb(0,0,0);" rx="1"/>
<text x="406" y="457" style="font-family:sans-serif;font-size:10px;">
(
</text>
<rect x="371.25" y="480.0" width="7.0" height="15.0" style="fill:orange; stroke:rgb(0,0,0);" rx="1"/>
<text x="373" y="489" style="font-family:sans-serif;font-size:10px;">
.
</text>
<rect x="430.0" y="320.0" width="77.0" height="15.0" style="fill:orange; stroke:rgb(0,0,0);" rx="1"/>
<text x="432" y="329" style="font-family:sans-serif;font-size:10px;">
blockStatement
</text>
<rect x="276.5" y="512.0" width="58.0" height="15.0" style="fill:orange; stroke:rgb(0,0,0);" rx="1"/>
<text x="278" y="521" style="font-family:sans-serif;font-size:10px;">
expression
</text>
<rect x="192.0" y="320.0" width="109.0" height="15.0" style="fill:orange; stroke:rgb(0,0,0);" rx="1"/>
<text x="194" y="329" style="font-family:sans-serif;font-size:10px;">
classOrInterfaceType
</text>
<rect x="496.5" y="384.0" width="7.0" height="15.0" style="fill:orange; stroke:rgb(0,0,0);" rx="1"/>
<text x="498" y="393" style="font-family:sans-serif;font-size:10px;">
;
</text>
<rect x="188.75" y="96.0" width="55.0" height="15.0" style="fill:orange; stroke:rgb(0,0,0);" rx="1"/>
<text x="190" y="105" style="font-family:sans-serif;font-size:10px;">
classBody
</text>
<rect x="408.0" y="416.0" width="58.0" height="15.0" style="fill:orange; stroke:rgb(0,0,0);" rx="1"/>
<text x="410" y="425" style="font-family:sans-serif;font-size:10px;">
expression
</text>
<rect x="234.0" y="288.0" width="25.0" height="15.0" style="fill:orange; stroke:rgb(0,0,0);" rx="1"/>
<text x="236" y="297" style="font-family:sans-serif;font-size:10px;">
type
</text>
<rect x="292.0" y="288.0" width="132.0" height="15.0" style="fill:orange; stroke:rgb(0,0,0);" rx="1"/>
<text x="294" y="297" style="font-family:sans-serif;font-size:10px;">
formalParameterDeclsRest
</text>
<rect x="77.25" y="32.0" width="79.0" height="15.0" style="fill:orange; stroke:rgb(0,0,0);" rx="1"/>
<text x="79" y="41" style="font-family:sans-serif;font-size:10px;">
typeDeclaration
</text>
<rect x="514.0" y="320.0" width="8.0" height="15.0" style="fill:orange; stroke:rgb(0,0,0);" rx="1"/>
<text x="516" y="329" style="font-family:sans-serif;font-size:10px;">
}
</text>
<rect x="419.5" y="448.0" width="75.0" height="15.0" style="fill:orange; stroke:rgb(0,0,0);" rx="1"/>
<text x="421" y="457" style="font-family:sans-serif;font-size:10px;">
expressionList
</text>
<rect x="437.0" y="512.0" width="40.0" height="15.0" style="fill:orange; stroke:rgb(0,0,0);" rx="1"/>
<text x="439" y="521" style="font-family:sans-serif;font-size:10px;">
primary
</text>
<rect x="308.0" y="320.0" width="100.0" height="15.0" style="fill:orange; stroke:rgb(0,0,0);" rx="1"/>
<text x="310" y="329" style="font-family:sans-serif;font-size:10px;">
variableDeclaratorId
</text>
</svg>